# xmcd
#
# Track frame offsets:
#	150
#	15929
#	35220
#	59083
#	75980
#	91978
#	107382
#	127543
#	141126
#	161171
#	175255
#	200265
#
# Disc length: 2926 seconds
#
# Revision: 0
# Processed by: cddbd v1.5.2PL0 Copyright (c) Steve Scherf et al.
# Submitted via: dBpowerAMP V4.0
#
DISCID=8f0b6c0c
DTITLE=Irvin Blais - Mon p'tit gars
DYEAR=1900
DGENRE=Country
TTITLE0=Si tu l'aime
TTITLE1=Qui est-elle
TTITLE2=L'bum  (mon p'tit gars)
TTITLE3=Toujour le meme frisson
TTITLE4=Probleme de boisson
TTITLE5=Mon p'tit creton
TTITLE6=Gaspesie
TTITLE7=Y a deja 40 ans
TTITLE8=Mon p'tit village
TTITLE9=Ta robe de mariee
TTITLE10=Mon p\tit papa d'amour
TTITLE11=Marie-Neige
EXTD=
EXTT0=
EXTT1=
EXTT2=
EXTT3=
EXTT4=
EXTT5=
EXTT6=
EXTT7=
EXTT8=
EXTT9=
EXTT10=
EXTT11=
PLAYORDER=
